<?xml version="1.0" encoding="UTF-8" standalone="no"?>
<!DOCTYPE svg PUBLIC "-//W3C//DTD SVG 1.1//EN" "http://www.w3.org/Graphics/SVG/1.1/DTD/svg11.dtd">
<svg width="100%" height="100%" viewBox="0 0 60 60" version="1.1" xmlns="http://www.w3.org/2000/svg" xmlns:xlink="http://www.w3.org/1999/xlink" xml:space="preserve" xmlns:serif="http://www.serif.com/" style="fill-rule:evenodd;clip-rule:evenodd;stroke-linejoin:round;stroke-miterlimit:2;">
    <g transform="matrix(0.80597,0,0,0.80597,8.47761,3)">
        <rect x="0.233" y="17.73" width="53.527" height="30.593" style="fill:white;"/>
    </g>
    <g transform="matrix(0.80597,0,0,0.80597,8.47761,3)">
        <path d="M0,51.507L27.015,67L54,51.462L53.993,46.42L53.798,44.868L44.396,28.689L26.993,38.722L7.829,27.726L0.187,40.937" style="fill:rgb(119,119,105);fill-rule:nonzero;"/>
    </g>
    <g transform="matrix(0.80597,0,0,0.80597,8.47761,3)">
        <path d="M53.79,15.448L26.993,29.815L0.187,15.501L0.202,36.074L7.844,22.87L27.008,33.858L44.418,23.833L53.813,40.005L53.79,15.448Z" style="fill:rgb(238,132,52);fill-rule:nonzero;"/>
    </g>
    <g transform="matrix(0.80597,0,0,0.80597,8.47761,3)">
        <path d="M53.805,15.381L26.985,0L0.195,15.433L27,29.748L53.805,15.381Z" style="fill:rgb(207,207,201);fill-rule:nonzero;"/>
    </g>
</svg>
